<!-- <svg class="icon" xmlns="http://www.w3.org/2000/svg" xmlns:xlink="http://www.w3.org/1999/xlink" x="0px" y="0px"
	 viewBox="0 0 28 28" enable-background="new 0 0 28 28" xml:space="preserve">
<path id="Twitter" fill="#D1CECC" d="M14,0C6.27,0,0,6.27,0,14s6.27,14,14,14s14-6.27,14-14S21.73,0,14,0z M20.69,10.57
	c0.01,0.15,0.01,0.3,0.01,0.45c0,4.56-3.47,9.82-9.82,9.82c-1.95,0-3.76-0.57-5.29-1.55c0.27,0.03,0.54,0.05,0.82,0.05
	c1.62,0,3.11-0.55,4.29-1.48c-1.51-0.03-2.79-1.03-3.23-2.4c0.21,0.04,0.43,0.06,0.65,0.06c0.31,0,0.62-0.04,0.91-0.12
	c-1.58-0.32-2.77-1.71-2.77-3.39c0-0.01,0-0.03,0-0.04c0.47,0.26,1,0.41,1.56,0.43c-0.93-0.62-1.54-1.68-1.54-2.87
	c0-0.63,0.17-1.23,0.47-1.74c1.7,2.09,4.25,3.46,7.12,3.61c-0.06-0.25-0.09-0.52-0.09-0.79c0-1.91,1.55-3.45,3.45-3.45
	c0.99,0,1.89,0.42,2.52,1.09c0.79-0.15,1.53-0.44,2.19-0.84c-0.26,0.81-0.81,1.48-1.52,1.91c0.7-0.08,1.36-0.27,1.98-0.54
	C21.95,9.47,21.37,10.08,20.69,10.57z"/>
</svg> -->

<svg fill="#33333340" xmlns="http://www.w3.org/2000/svg" height="15" viewBox="0 0 17 15" width="17"><path xmlns="http://www.w3.org/2000/svg" d="M15.1453 4.32361V4.76161C15.1453 6.37661 14.7963 7.93561 14.0983 9.43961C13.4003 10.9426 12.3223 12.2156 10.8643 13.2586C9.40529 14.3026 7.71829 14.8236 5.80029 14.8236C3.94629 14.8236 2.27029 14.2966 0.769287 13.2416C0.936287 13.2646 1.19629 13.2756 1.55029 13.2756C3.11329 13.2756 4.47729 12.7706 5.64429 11.7616C4.93629 11.7616 4.30029 11.5316 3.73829 11.0716C3.17625 10.6126 2.76285 9.9974 2.55029 9.30361C2.69629 9.34861 2.90529 9.37061 3.17529 9.37061C3.48829 9.37061 3.77929 9.33661 4.05029 9.27061C3.30029 9.09061 2.67529 8.67561 2.17529 8.02461C1.67529 7.37461 1.42529 6.63361 1.42529 5.80361V5.73661C1.90529 6.02761 2.39429 6.17361 2.89429 6.17361C1.91429 5.50061 1.42529 4.52461 1.42529 3.24561C1.42529 2.66261 1.58229 2.06761 1.89529 1.46161C3.62329 3.79561 5.87329 5.02961 8.64529 5.16361C8.58294 4.89911 8.55107 4.62835 8.55029 4.35661C8.55029 3.39161 8.86829 2.56161 9.50329 1.86661C10.1403 1.17061 10.9163 0.823608 11.8333 0.823608C12.7913 0.823608 13.5933 1.19361 14.2393 1.93361C15.0513 1.75461 15.7493 1.47361 16.3323 1.09361C16.0823 1.92361 15.6033 2.57361 14.8953 3.04461C15.6253 2.93261 16.2493 2.74161 16.7703 2.47261C16.3417 3.18034 15.7916 3.80694 15.1453 4.32361Z"/></svg>
