<!-- <svg class="icon" xmlns="http://www.w3.org/2000/svg" xmlns:xlink="http://www.w3.org/1999/xlink" x="0px" y="0px"
	 viewBox="0 0 28 28" enable-background="new 0 0 28 28" xml:space="preserve">
<path id="Facebook" fill="#D1CECC" d="M14,0C6.27,0,0,6.27,0,14s6.27,14,14,14s14-6.27,14-14S21.73,0,14,0z M20.99,20.22
	c0,0.43-0.35,0.77-0.77,0.77h-3.56v-5.42h1.82l0.27-2.11h-2.09v-1.35c0-0.61,0.17-1.03,1.05-1.03l1.12,0V9.2
	c-0.19-0.03-0.86-0.08-1.63-0.08c-1.61,0-2.71,0.98-2.71,2.79v1.56h-1.82v2.11h1.82v5.42h-6.7c-0.43,0-0.77-0.35-0.77-0.77V7.78
	c0-0.43,0.35-0.77,0.77-0.77h12.44c0.43,0,0.77,0.35,0.77,0.77V20.22z"/>
</svg> -->


<svg fill="#33333340" xmlns="http://www.w3.org/2000/svg" xmlns:xlink="http://www.w3.org/1999/xlink" enable-background="new 0 0 32 32" version="1.1" viewBox="0 0 32 32" xml:space="preserve"><g id="Flat_copy"><path d="M11.848,32h6.612V15.998h4.411l0.584-5.514H18.46l0.007-2.761c0-1.437,0.137-2.209,2.2-2.209h2.757V0h-4.412   c-5.299,0-7.164,2.675-7.164,7.174v3.311H8.545v5.515h3.303V32z"/></g></svg>
