<!-- <svg class="icon" xmlns="http://www.w3.org/2000/svg" xmlns:xlink="http://www.w3.org/1999/xlink" x="0px" y="0px"
	 viewBox="0 0 28 28" enable-background="new 0 0 28 28" xml:space="preserve">
<path id="LinkedIn" fill="#D1CECC" d="M18.82,15.09v3.61h-2.09v-3.37c0-0.85-0.3-1.42-1.06-1.42c-0.58,0-0.92,0.39-1.07,0.77
	c-0.06,0.13-0.07,0.32-0.07,0.51v3.52h-2.09c0,0,0.03-5.71,0-6.3h2.09v0.89c0,0.01-0.01,0.01-0.01,0.02h0.01V13.3
	c0.28-0.43,0.77-1.04,1.89-1.04C17.79,12.25,18.82,13.16,18.82,15.09z M9.18,18.7h2.09v-6.3H9.18V18.7z M10.24,9.36
	c-0.72,0-1.19,0.47-1.19,1.09c0,0.61,0.45,1.09,1.16,1.09h0.01c0.73,0,1.18-0.48,1.18-1.09C11.39,9.84,10.95,9.36,10.24,9.36z
	 M28,14c0,7.73-6.27,14-14,14S0,21.73,0,14S6.27,0,14,0S28,6.27,28,14z M20.93,8.02c0-0.55-0.46-1-1.02-1H8.09
	c-0.57,0-1.02,0.45-1.02,1v11.96c0,0.55,0.46,1,1.02,1h11.82c0.57,0,1.02-0.45,1.02-1V8.02z"/>
</svg> -->

<svg fill="#33333340" xmlns="http://www.w3.org/2000/svg" xmlns:xlink="http://www.w3.org/1999/xlink" enable-background="new 0 0 32 32" version="1.1" viewBox="0 0 32 32" xml:space="preserve"><g id="Flat_copy"><path d="M32,31.292V19.46c0-6.34-3.384-9.29-7.896-9.29c-3.641,0-5.273,2.003-6.182,3.409v-2.924h-6.86   c0.091,1.937,0,20.637,0,20.637h6.86V19.767c0-0.615,0.044-1.232,0.226-1.672c0.495-1.233,1.624-2.509,3.518-2.509   c2.483,0,3.475,1.892,3.475,4.666v11.041H32V31.292z M3.835,7.838c2.391,0,3.882-1.586,3.882-3.567   c-0.044-2.024-1.49-3.564-3.836-3.564S0,2.246,0,4.271c0,1.981,1.489,3.567,3.792,3.567H3.835z M7.265,31.292V10.655H0.406v20.637   H7.265z"/></g></svg>
